<?xml version="1.0" standalone="no"?>
<!DOCTYPE svg PUBLIC "-//W3C//DTD SVG 20010904//EN"
 "http://www.w3.org/TR/2001/REC-SVG-20010904/DTD/svg10.dtd">
<svg version="1.0" xmlns="http://www.w3.org/2000/svg"
 width="447.000000pt" height="559.000000pt" viewBox="0 0 447.000000 559.000000"
 preserveAspectRatio="xMidYMid meet">

<g transform="translate(0.000000,559.000000) scale(0.100000,-0.100000)"
fill="#000000" stroke="none">
<path d="M2935 3864 c-55 -18 -85 -46 -820 -783 -219 -221 -402 -401 -406
-401 -5 0 -9 150 -11 333 l-3 332 -27 47 c-81 137 -244 185 -379 112 -58 -32
-103 -84 -124 -144 -23 -64 -22 -1338 0 -1425 21 -80 52 -125 115 -165 46 -30
62 -34 136 -38 75 -4 89 -2 136 21 43 22 204 178 873 852 592 596 828 840 848
877 53 98 31 233 -50 314 -73 73 -187 100 -288 68z"/>
<path d="M2338 2384 l-198 -196 38 -47 c190 -244 286 -360 317 -379 133 -84
330 -19 401 133 32 69 33 164 1 226 -12 24 -67 100 -122 169 -56 69 -130 162
-165 207 -36 46 -67 83 -70 83 -3 0 -94 -88 -202 -196z"/>
</g>
</svg>
